<svg width="174" height="41" viewBox="0 0 174 41" fill="none" xmlns="http://www.w3.org/2000/svg">
<g id="Montex Logo 1" clip-path="url(#clip0_0_744)">
<g id="Layer 2">
<g id="Layer 1">
<path id="Vector" d="M35.7874 27.3047C35.7514 25.0722 36.2273 22.8612 37.1786 20.8412C38.0288 18.9971 39.3982 17.4409 41.1192 16.3631C42.8403 15.2853 44.8382 14.7327 46.8684 14.7729C48.3847 14.7212 49.8934 15.0071 51.2856 15.6101C52.6777 16.213 53.9185 17.1178 54.918 18.2591C56.9751 20.5832 58.0018 23.6598 57.9982 27.4888V28.0626C58.0359 30.3057 57.5601 32.5277 56.607 34.5586C55.7638 36.3932 54.4012 37.9402 52.6877 39.0083C50.9543 40.0758 48.9528 40.6278 46.9172 40.5998C45.4033 40.6498 43.8971 40.3636 42.5071 39.7617C41.1171 39.1598 39.8778 38.2573 38.8784 37.1191C36.8177 34.7986 35.7874 31.7202 35.7874 27.884V27.3047ZM38.5482 28.0626C38.5482 31.0399 39.3187 33.4813 40.8597 35.3868C41.5929 36.2817 42.5156 37.0028 43.5612 37.4979C44.6069 37.993 45.7494 38.2498 46.9063 38.2498C48.0633 38.2498 49.2058 37.993 50.2514 37.4979C51.2971 37.0028 52.2198 36.2817 52.953 35.3868C54.4976 33.4813 55.2681 30.9551 55.2645 27.8082V27.2668C55.2774 25.4703 54.9084 23.6915 54.1818 22.0484C53.5611 20.5836 52.5429 19.3216 51.2424 18.4052C49.9517 17.5347 48.425 17.0813 46.8684 17.1061C45.709 17.0857 44.5611 17.3399 43.5187 17.848C42.4763 18.356 41.5688 19.1034 40.8705 20.0292C39.3223 21.9564 38.5482 24.4826 38.5482 27.6079V28.0626Z" fill="white"/>
<path id="Vector_2" d="M65.8313 15.2331L65.9233 19.4879C66.7731 18.0414 67.9764 16.8344 69.4203 15.9801C70.8253 15.1709 72.4219 14.754 74.0432 14.7729C76.7066 14.7729 78.6915 15.5236 79.9979 17.0249C81.3043 18.5262 81.9629 20.7799 81.9737 23.7861V40.1126H79.24V23.7644C79.24 21.5396 78.7528 19.8885 77.8217 18.795C76.8906 17.7015 75.4128 17.171 73.372 17.171C71.7254 17.1513 70.1253 17.7172 68.8573 18.7679C67.4955 19.9062 66.4855 21.4081 65.9449 23.0986V40.1126H63.2383V15.2114L65.8313 15.2331Z" fill="white"/>
<path id="Vector_3" d="M125.832 8.86157V15.233H131.002V17.485H125.854V34.1038C125.854 35.4896 126.103 36.5182 126.601 37.1894C127.099 37.8661 127.927 38.2071 129.097 38.2071C129.844 38.1768 130.589 38.099 131.327 37.9743L131.441 40.21C130.487 40.4981 129.492 40.6279 128.496 40.5944C126.612 40.5944 125.248 40.0531 124.382 38.9704C123.515 37.8877 123.093 36.2637 123.093 34.0984V17.485H118.514V15.233H123.093V8.86157H125.832Z" fill="white"/>
<path id="Vector_4" d="M103.73 23.916H109.057C108.529 22.095 107.443 20.4851 105.953 19.3126C104.463 18.1401 102.643 17.4638 100.749 17.3788C98.8551 17.2939 96.982 17.8045 95.393 18.8388C93.804 19.8732 92.579 21.3795 91.89 23.1459C91.2011 24.9124 91.0829 26.8502 91.5521 28.6873C92.0212 30.5244 93.0541 32.1683 94.5056 33.3881C95.9572 34.608 97.7544 35.3424 99.6448 35.4883C101.535 35.6341 103.424 35.184 105.045 34.2013C105.425 33.9782 105.787 33.7266 106.128 33.4488L106.48 33.1457L106.545 33.0861C106.865 32.7836 107.249 32.5562 107.669 32.4205C108.088 32.2847 108.533 32.244 108.97 32.3012C109.351 32.3435 109.718 32.4686 110.045 32.6678C110.372 32.867 110.652 33.1354 110.865 33.4542C111.122 33.8352 111.241 34.293 111.202 34.7512C111.162 35.2093 110.967 35.6401 110.648 35.9714C110.018 36.6597 109.323 37.2869 108.575 37.8444L108.185 38.1205C106.37 39.352 104.293 40.1425 102.119 40.4289C99.945 40.7153 97.734 40.4897 95.6624 39.7701C93.5909 39.0504 91.7162 37.8567 90.1878 36.2841C88.6595 34.7115 87.5197 32.8035 86.8595 30.7123C86.1992 28.6211 86.0368 26.4046 86.3851 24.2395C86.7334 22.0743 87.5828 20.0206 88.8655 18.2419C90.1483 16.4633 91.8289 15.009 93.7734 13.9951C95.7178 12.9811 97.8723 12.4355 100.065 12.4019C101.928 12.374 103.778 12.7152 105.508 13.4058C107.238 14.0964 108.815 15.1228 110.146 16.4257C111.478 17.7286 112.538 19.2823 113.266 20.9971C113.995 22.712 114.376 24.554 114.389 26.4169C114.394 27.3364 114.307 28.254 114.129 29.1561H103.584C103.022 29.8296 102.265 30.3115 101.417 30.5347C100.57 30.7579 99.6732 30.7113 98.8531 30.4013C98.0329 30.0914 97.3298 29.5335 96.8415 28.8053C96.3532 28.0772 96.104 27.2149 96.1286 26.3385C96.1532 25.4621 96.4503 24.6152 96.9786 23.9155C97.5069 23.2158 98.2402 22.6982 99.0764 22.4347C99.9126 22.1712 100.81 22.1749 101.644 22.4452C102.478 22.7155 103.207 23.2391 103.73 23.9431V23.916Z" fill="url(#paint0_linear_0_744)"/>
<path id="Vector_5" d="M3.12348 18.324C4.84853 18.324 6.24696 16.9256 6.24696 15.2006C6.24696 13.4755 4.84853 12.0771 3.12348 12.0771C1.39843 12.0771 0 13.4755 0 15.2006C0 16.9256 1.39843 18.324 3.12348 18.324Z" fill="white"/>
<path id="Vector_6" d="M15.3738 26.444C17.0989 26.444 18.4973 25.0456 18.4973 23.3205C18.4973 21.5955 17.0989 20.1971 15.3738 20.1971C13.6488 20.1971 12.2503 21.5955 12.2503 23.3205C12.2503 25.0456 13.6488 26.444 15.3738 26.444Z" fill="white"/>
<path id="Vector_7" d="M3.5295 9.86305C4.94661 9.86305 6.09541 8.71425 6.09541 7.29714C6.09541 5.88003 4.94661 4.73123 3.5295 4.73123C2.11239 4.73123 0.963593 5.88003 0.963593 7.29714C0.963593 8.71425 2.11239 9.86305 3.5295 9.86305Z" fill="white"/>
<path id="Vector_8" d="M28.3062 9.86305C29.7233 9.86305 30.8721 8.71425 30.8721 7.29714C30.8721 5.88003 29.7233 4.73123 28.3062 4.73123C26.8891 4.73123 25.7403 5.88003 25.7403 7.29714C25.7403 8.71425 26.8891 9.86305 28.3062 9.86305Z" fill="white"/>
<path id="Vector_9" d="M27.7594 6.61505L16.3265 15.4279C16.0676 15.6303 15.7484 15.7402 15.4198 15.7402C15.0912 15.7402 14.772 15.6303 14.5131 15.4279L3.07475 6.61505" stroke="white" stroke-miterlimit="10"/>
<path id="Vector_10" d="M0.757874 16.5593H5.48369V38.6456C5.47801 39.0223 5.32436 39.3816 5.05595 39.646C4.78754 39.9104 4.4259 40.0585 4.04917 40.0585H2.19781C1.82014 40.0599 1.45712 39.9124 1.18754 39.6479C0.917963 39.3834 0.763571 39.0232 0.757874 38.6456V16.5593Z" fill="white"/>
<path id="Vector_11" d="M28.3062 18.324C30.0313 18.324 31.4297 16.9256 31.4297 15.2006C31.4297 13.4755 30.0313 12.0771 28.3062 12.0771C26.5812 12.0771 25.1827 13.4755 25.1827 15.2006C25.1827 16.9256 26.5812 18.324 28.3062 18.324Z" fill="white"/>
<path id="Vector_12" d="M25.9406 16.5593H30.6664V38.6456C30.6607 39.0223 30.5071 39.3816 30.2386 39.646C29.9702 39.9104 29.6086 40.0585 29.2319 40.0585H27.3805C27.1921 40.0585 27.0056 40.0214 26.8315 39.9493C26.6575 39.8772 26.4994 39.7715 26.3661 39.6383C26.2329 39.5051 26.1273 39.347 26.0552 39.1729C25.9831 38.9989 25.946 38.8123 25.946 38.6239V16.5593H25.9406Z" fill="white"/>
<path id="Vector_13" d="M12.9919 25.0907H17.7178V38.624C17.7178 39.0016 17.5689 39.3641 17.3034 39.6326C17.0378 39.9012 16.6771 40.0542 16.2995 40.0585H14.4481C14.2597 40.0614 14.0726 40.0271 13.8975 39.9576C13.7223 39.8882 13.5626 39.7849 13.4274 39.6537C13.2921 39.5225 13.1841 39.3659 13.1094 39.193C13.0347 39.02 12.9948 38.834 12.9919 38.6456V25.1124V25.0907Z" fill="white"/>
<path id="Vector_14" d="M151.156 31.002L155.611 38.7431H161.484L152.655 24.387C151.778 25.7908 150.912 27.3011 150.057 28.9179C150.349 29.5242 150.744 30.2712 151.156 31.002Z" fill="white"/>
<path id="Vector_15" d="M147.507 17.0249L143.577 9.98755H137.623L145.012 22.1946C146.024 20.89 147.096 19.5962 148.216 18.3511C147.994 17.9072 147.751 17.4633 147.507 17.0249Z" fill="white"/>
<path id="Vector_16" d="M174 0C174 0 150.615 16.0775 144.064 40.2696H135.17C135.17 40.2696 150.615 8.88865 174 0Z" fill="white"/>
</g>
</g>
</g>
<defs>
<linearGradient id="paint0_linear_0_744" x1="86.2773" y1="26.4332" x2="114.394" y2="26.4332" gradientUnits="userSpaceOnUse">
<stop stop-color="#70B544"/>
<stop offset="0.24" stop-color="#6AB244"/>
<stop offset="0.56" stop-color="#59AB45"/>
<stop offset="0.92" stop-color="#3E9E47"/>
<stop offset="1" stop-color="#379B47"/>
</linearGradient>
<clipPath id="clip0_0_744">
<rect width="174" height="40.5728" fill="white"/>
</clipPath>
</defs>
</svg>
