<svg width="42" height="85" viewBox="0 0 42 85" fill="none" xmlns="http://www.w3.org/2000/svg">
<path d="M4.13685 8.08364C4.23921 7.84163 4.90062 6.64007 5.15248 6.18558C5.21677 6.02567 5.29908 5.87127 5.3993 5.72491C6.62506 3.93632 8.27525 4.95893 8.38958 5.03097C8.8933 5.34836 9.47908 5.91755 9.48954 7.06183C9.50026 8.20233 8.64634 9.04688 8.22571 10.0418C7.83255 10.9713 7.24298 11.9056 6.99264 12.9072C7.05592 13.1273 7.08983 13.361 7.08983 13.603C7.08983 14.9197 6.08529 15.9887 4.84806 15.9887C4.10446 15.9887 3.661 15.7258 3.36061 15.4916C2.87706 15.1146 2.25951 14.4193 2.4457 12.8341C2.64108 11.1712 3.49964 9.59079 4.13685 8.08364Z" fill="white" fill-opacity="0.09"/>
<path fill-rule="evenodd" clip-rule="evenodd" d="M2.0515 17.7152C1.51993 18.9582 1.36387 21.6354 1.76889 23.9469C2.07495 25.6942 2.72161 27.1994 3.44076 27.9649C4.31571 28.896 5.73636 28.896 6.61131 27.9649C7.48613 27.0338 7.48613 25.5219 6.61131 24.5909C6.35138 24.3144 6.28722 23.7035 6.17654 23.0724C5.95708 21.8196 5.84439 20.3651 6.13242 19.6914C6.64496 18.493 6.14667 17.0772 5.02049 16.5319C3.89431 15.9864 2.56392 16.5167 2.0515 17.7152Z" fill="white" fill-opacity="0.09"/>
<path fill-rule="evenodd" clip-rule="evenodd" d="M9.93164 33.2474C9.87177 32.0928 9.02783 31.1241 7.91324 31.0071C7.19826 30.9321 6.7021 31.1681 6.33806 31.4376C5.85022 31.7985 5.50911 32.3156 5.38508 33.0026C5.29533 33.4997 5.51038 34.4833 5.63177 34.7847C6.06414 35.8583 6.75013 36.7145 7.55966 37.4488C8.33528 38.1523 9.2609 38.6989 9.929 39.41C10.8039 40.3411 12.2246 40.3411 13.0994 39.41C13.9744 38.4789 13.9744 36.9671 13.0994 36.0361C12.5489 35.4501 11.87 34.9369 11.189 34.4095C10.7364 34.059 10.2455 33.7329 9.93164 33.2474Z" fill="white" fill-opacity="0.09"/>
<path fill-rule="evenodd" clip-rule="evenodd" d="M19.4812 36.8105C18.7972 36.7728 17.3446 36.6804 17.0176 36.5601C15.848 36.1301 14.5706 36.7915 14.1666 38.0361C13.7624 39.2806 14.3839 40.6402 15.5534 41.0701C16.4154 41.387 19.461 41.9689 21.2084 41.3729C22.7836 40.8355 23.711 39.6856 23.711 37.9124C23.711 36.5956 22.7064 35.5266 21.4691 35.5266C20.6054 35.5266 19.8549 36.0476 19.4812 36.8105Z" fill="white" fill-opacity="0.09"/>
<path fill-rule="evenodd" clip-rule="evenodd" d="M23.6199 31.9933C23.1308 32.323 22.7612 32.853 22.6289 33.5022C22.367 34.7891 23.1359 36.0602 24.3452 36.3391C25.2216 36.5412 26.3416 36.3005 27.2001 35.0093C28.1243 33.619 28.9555 29.7077 28.9555 28.7372C28.9555 27.4206 27.951 26.3516 26.7136 26.3516C25.4764 26.3516 24.4719 27.4206 24.4719 28.7372C24.4719 29.181 23.8466 31.2565 23.6199 31.9933Z" fill="white" fill-opacity="0.09"/>
<path fill-rule="evenodd" clip-rule="evenodd" d="M22.898 25.6726C24.1516 26.5976 25.2151 25.9685 25.4447 25.8221C26.5059 25.1451 26.851 23.6786 26.2148 22.5492C26.0014 22.1704 25.7044 21.8772 25.3636 21.681C24.9263 21.339 22.9756 19.8607 21.6064 19.5826C20.3262 19.3228 19.1371 19.6163 18.1955 20.6183C17.3207 21.5494 17.3207 23.0612 18.1955 23.9922C19.3651 25.2369 21.3365 24.5203 22.898 25.6726Z" fill="white" fill-opacity="0.09"/>
<path fill-rule="evenodd" clip-rule="evenodd" d="M13.1134 29.0785C13.2053 28.9615 13.5817 28.4915 13.856 28.2595C14.0562 28.0902 14.3354 27.9093 14.5473 27.7807C14.8423 27.8314 15.1516 27.8192 15.4592 27.7347C16.6572 27.4057 17.3787 26.1034 17.0695 24.8284C16.7753 23.6156 15.8143 22.5203 13.9479 22.9283C13.0195 23.1314 11.351 24.0953 10.2009 25.3539C9.2033 26.4456 8.64008 27.7495 8.64008 28.8533C8.64008 30.17 9.64461 31.2391 10.8818 31.2391C12.0477 31.2391 13.007 30.2898 13.1134 29.0785Z" fill="white" fill-opacity="0.09"/>
<path fill-rule="evenodd" clip-rule="evenodd" d="M9.05069 47.0056C9.12279 46.1832 9.32359 43.8404 9.39091 42.6093C9.42053 42.5452 9.44713 42.4788 9.47121 42.4107C9.90547 41.1777 9.31755 39.8015 8.15897 39.3392C7.41096 39.0409 6.74828 39.1557 6.16288 39.5217C5.87737 39.7002 5.59727 39.9613 5.37277 40.3284C5.12633 40.7319 4.93094 41.459 4.93094 42.002C4.93094 43.0381 4.40454 46.5819 4.58404 47.9567C4.84573 49.9613 6.15645 50.5361 7.08397 50.5361C8.3212 50.5361 9.32574 49.4671 9.32574 48.1503C9.32574 47.7355 9.22603 47.3454 9.05069 47.0056Z" fill="white" fill-opacity="0.09"/>
<path fill-rule="evenodd" clip-rule="evenodd" d="M14.6371 58.0418C14.4796 57.8292 14.047 57.2334 13.7832 56.7639C13.1945 55.7157 12.5781 54.1151 12.4157 53.6824C12.388 53.1093 12.1673 52.5452 11.754 52.1102C10.8744 51.1841 9.45379 51.1925 8.58363 52.1285C8.2995 52.4343 7.96873 52.9255 7.92159 53.7174C7.90545 53.987 7.95297 54.595 8.21366 55.3852C8.67842 56.7943 9.90595 59.4674 11.0677 60.9492C12.0473 62.1985 13.1855 62.7158 14.0031 62.7158C15.2404 62.7158 16.2449 61.6467 16.2449 60.3299C16.2449 59.2475 15.5661 58.3323 14.6371 58.0418Z" fill="white" fill-opacity="0.09"/>
<path fill-rule="evenodd" clip-rule="evenodd" d="M20.3127 65.1319C20.1917 64.9504 20.0442 64.7846 19.8715 64.6404C18.8981 63.8277 17.4877 64.0089 16.7241 65.045C16.0415 65.9707 16.116 66.7724 16.2961 67.3932C16.4627 67.9675 16.8941 68.6028 17.6223 68.9904C18.798 69.6159 20.4505 71.1327 21.3949 72.1378C22.2699 73.0689 23.6905 73.0689 24.5653 72.1378C25.4403 71.2068 25.4403 69.6949 24.5653 68.7638C23.5125 67.6433 21.7559 66.0691 20.3127 65.1319Z" fill="white" fill-opacity="0.09"/>
<path fill-rule="evenodd" clip-rule="evenodd" d="M37.8526 80.189C37.9592 80.2059 38.0683 80.2145 38.1791 80.2145C40.3003 80.2145 40.4272 78.0123 40.4287 77.8528C40.4341 77.292 40.3093 76.5273 39.5146 75.9057C39.4679 75.869 39.1353 75.5424 38.4221 75.4544C38.2245 75.43 36.7175 75.3117 36.2189 75.2056C35.7419 75.104 32.9373 73.9706 32.2266 73.6816C31.8642 73.106 31.2705 72.7022 30.5723 72.633C29.3403 72.5108 28.2469 73.476 28.1321 74.787C28.0664 75.5361 28.3393 76.7075 29.5744 77.5844C30.952 78.5625 34.5771 79.722 35.3397 79.8844C35.8645 79.9961 37.5348 80.1587 37.8526 80.189Z" fill="white" fill-opacity="0.09"/>
</svg>
